<?xml version="1.0" standalone="no"?>
<!DOCTYPE svg PUBLIC "-//W3C//DTD SVG 20010904//EN"
 "http://www.w3.org/TR/2001/REC-SVG-20010904/DTD/svg10.dtd">
<svg version="1.0" xmlns="http://www.w3.org/2000/svg"
 width="60.000000pt" height="60.000000pt" viewBox="0 0 60.000000 60.000000"
 preserveAspectRatio="xMidYMid meet">

<g transform="translate(0.000000,60.000000) scale(0.100000,-0.100000)"
fill="#000000" stroke="none">
<path d="M222 588 c-14 -14 -17 -158 -2 -158 5 0 10 33 12 73 l3 72 170 0 170
0 3 -107 3 -108 -182 0 c-157 0 -180 2 -175 15 8 23 -12 18 -25 -6 -7 -13 -7
-25 -1 -31 5 -5 86 -8 196 -6 153 2 188 6 196 18 14 23 13 223 -2 238 -17 17
-349 17 -366 0z"/>
<path d="M285 510 c-3 -5 0 -13 8 -16 24 -9 172 0 170 11 -4 14 -170 19 -178
5z"/>
<path d="M75 471 l-70 -6 -3 -55 c-4 -63 10 -80 66 -80 49 0 72 16 72 50 0 17
-4 30 -10 30 -5 0 -10 -11 -10 -24 0 -21 -5 -24 -46 -28 -25 -2 -47 -1 -50 1
-2 2 -4 24 -4 48 l0 43 47 0 c46 0 46 0 28 -20 -13 -14 -25 -18 -39 -14 -21 7
-21 6 -2 -15 l20 -22 43 43 c40 39 53 60 36 56 -5 -1 -39 -4 -78 -7z"/>
<path d="M280 430 c0 -5 11 -10 25 -10 14 0 25 5 25 10 0 6 -11 10 -25 10 -14
0 -25 -4 -25 -10z"/>
<path d="M360 430 c0 -6 35 -10 85 -10 50 0 85 4 85 10 0 6 -35 10 -85 10 -50
0 -85 -4 -85 -10z"/>
<path d="M7 284 c-12 -12 -8 -109 5 -122 16 -16 100 -16 116 0 15 15 16 58 2
58 -5 0 -10 -11 -10 -25 0 -23 -3 -25 -50 -25 l-50 0 0 50 0 50 45 0 c25 0 45
-4 45 -9 0 -14 -27 -32 -44 -29 -21 4 -24 -13 -4 -26 14 -9 25 -3 58 29 22 21
40 42 40 46 0 9 -144 11 -153 3z"/>
<path d="M196 233 c5 -10 10 -61 12 -113 2 -52 8 -100 14 -107 14 -18 349 -18
366 -1 16 16 16 210 0 226 -8 8 -62 12 -177 12 -213 0 -205 -18 9 -22 l155 -3
0 -100 0 -100 -170 0 -170 0 -5 100 c-3 55 -9 106 -13 113 -13 19 -30 15 -21
-5z"/>
<path d="M287 173 c-19 -18 1 -23 88 -23 78 0 95 3 95 15 0 12 -16 15 -88 15
-49 0 -92 -3 -95 -7z"/>
<path d="M280 90 c0 -5 14 -10 31 -10 17 0 28 4 24 10 -3 6 -17 10 -31 10 -13
0 -24 -4 -24 -10z"/>
<path d="M360 90 c0 -6 35 -10 85 -10 50 0 85 4 85 10 0 6 -35 10 -85 10 -50
0 -85 -4 -85 -10z"/>
</g>
</svg>
